# xmcd
# 
# Track frame offsets:
#     150
#     13940
#     26605
#     37972
#     52162
#     65360
#     77672
#     92330
#     106110
#     116157
#     128915
#     142310
#     155852
#     170177
#     183467
#     198215
#     211007
#     223492
#     234640
#     247852
# 
# Disc length: 3502
# 
# Revision: 1
# Processed by: cddbd v1.5.2PL0 Copyright (c) Steve Scherf et al.
# Submitted via: fre:ac v1.0.31
# 
DISCID=250dac14
DTITLE=Patti Page - A Golden Celebration  Disc1
DYEAR=1997
DGENRE=Country
TTITLE0=Every so often
TTITLE1=Confess
TTITLE2=Oklahoma blues
TTITLE3=With my eyes wide open, i'm dreaming
TTITLE4=I'll never be free
TTITLE5=I don't care if the sun don't shine
TTITLE6=All my love
TTITLE7=Tennessee waltz
TTITLE8=Boogie woogie Santa Claus
TTITLE9=Once in a while
TTITLE10=Would I love you (love you, love you)
TTITLE11=Mockin' bird hill
TTITLE12=Mister and Mississippi
TTITLE13=And so to sleep again
TTITLE14=I went to your wedding
TTITLE15=You belong to me
TTITLE16=Why don't you believe me?
TTITLE17=(How much is)  that doggie in the window
TTITLE18=This is my song
TTITLE19=Father, father
EXTD=
EXTT0=
EXTT1=
EXTT2=
EXTT3=
EXTT4=
EXTT5=
EXTT6=
EXTT7=
EXTT8=
EXTT9=
EXTT10=
EXTT11=
EXTT12=
EXTT13=
EXTT14=
EXTT15=
EXTT16=
EXTT17=
EXTT18=
EXTT19=
PLAYORDER=
